<?xml version="1.0" encoding="UTF-8" standalone="no"?>
<svg
   xmlns:sketch="http://www.bohemiancoding.com/sketch/ns"
   xmlns:dc="http://purl.org/dc/elements/1.1/"
   xmlns:cc="http://creativecommons.org/ns#"
   xmlns:rdf="http://www.w3.org/1999/02/22-rdf-syntax-ns#"
   xmlns:svg="http://www.w3.org/2000/svg"
   xmlns="http://www.w3.org/2000/svg"
   xmlns:sodipodi="http://sodipodi.sourceforge.net/DTD/sodipodi-0.dtd"
   xmlns:inkscape="http://www.inkscape.org/namespaces/inkscape"
   width="24px"
   height="24px"
   viewBox="0 0 24 24"
   version="1.1"
   id="svg3115"
   inkscape:version="0.48.4 r9939"
   sodipodi:docname="Dislike.svg">
  <metadata
     id="metadata3128">
    <rdf:RDF>
      <cc:Work
         rdf:about="">
        <dc:format>image/svg+xml</dc:format>
        <dc:type
           rdf:resource="http://purl.org/dc/dcmitype/StillImage" />
        <dc:title>Dislike</dc:title>
      </cc:Work>
    </rdf:RDF>
  </metadata>
  <sodipodi:namedview
     pagecolor="#ffffff"
     bordercolor="#666666"
     borderopacity="1"
     objecttolerance="10"
     gridtolerance="10"
     guidetolerance="10"
     inkscape:pageopacity="0"
     inkscape:pageshadow="2"
     inkscape:window-width="640"
     inkscape:window-height="480"
     id="namedview3126"
     showgrid="false"
     inkscape:zoom="9.8333333"
     inkscape:cx="12"
     inkscape:cy="12"
     inkscape:window-x="0"
     inkscape:window-y="0"
     inkscape:window-maximized="0"
     inkscape:current-layer="svg3115" />
  <!-- Generator: Sketch 3.3.3 (12081) - http://www.bohemiancoding.com/sketch -->
  <title
     id="title3117">Dislike</title>
  <desc
     id="desc3119">Created with Sketch.</desc>
  <defs
     id="defs3121" />
  <g
     id="Spec"
     stroke="none"
     stroke-width="1"
     fill="none"
     fill-rule="evenodd"
     sketch:type="MSPage">
    <g
       id="Dislike"
       sketch:type="MSArtboardGroup"
       fill="#000000">
      <path
         d="M7.44084054,15.9701162 C6.08690417,15.9701162 5,14.855087 5,13.4917635 L5,8.95670539 C5,7.75428896 6.81221973,5 8.1616212,5 L14.19888,5 C14.7321668,5 14.7321668,5 16.151252,5 L16.198491,5 C17.6334322,5 17.6334322,5 18.1755847,5.00237783 C19.1507164,5.06974437 19.9733311,6.06652413 19.9733311,7.13537487 L19.9733311,11.5438226 C19.9733311,12.7107818 19.1001739,14.0025871 17.8972056,14.0025871 L16.759024,13.9914072 C16.759024,13.9914072 16.0591536,14.901592 15.3465859,15.6255287 C15.3030392,15.6697496 15.3030392,15.6697496 15.259664,15.7137412 C14.6586027,16.3232443 14.4537089,16.5389959 14.2420253,16.7993466 C14.1269552,16.9408717 14.0478105,17.0550792 14.0070858,17.0876452 L14.0070858,19.3051742 L14.0028299,19.2130129 C14.0047734,19.2352672 14.0047734,19.2352672 14.0068882,19.2710189 C14.0178128,19.4856786 13.9983403,19.7215819 13.916222,19.9740844 C13.768854,20.4272209 13.4480452,20.8010897 12.9412512,20.9562106 L12.7981872,21 L12.6485717,21 L12.1510673,21 L12.0243831,21 L11.901701,20.9684092 C11.1044263,20.7631102 10.361269,20.1536476 10.105073,19.4498941 L10.2082413,19.6557771 C10.1852651,19.6207025 9.76099232,19.0627076 9.59440157,18.8106013 C9.03271112,17.9605799 8.70601718,17.0512057 8.68810781,16 L8,16 C7.66774668,15.9726218 7.46129077,15.9701162 7.44084054,15.9701162 Z M11.9844147,18.7657342 L11.9447629,18.6568134 L11.8812464,18.5598512 C11.8076941,18.4475685 11.3801881,17.8853214 11.2630097,17.7079922 C10.7678385,16.9586362 10.5709442,16.2051871 10.7572488,15.1785554 L10.9682513,14.0158258 L9.786636,14.0000887 C9.71648111,13.9991543 9.71648111,13.9991543 9.4345664,13.9954182 C9.08113531,13.990748 9.08113531,13.990748 8.65338488,13.9851434 C8.63608446,13.9849174 8.63608446,13.9849174 8.61877941,13.9846916 C7.89664283,13.9752678 7.48627969,13.9701162 7.44084054,13.9701162 C7.20307038,13.9701162 7,13.7617911 7,13.4917635 L7,8.95670539 C7,8.94094337 7.2839832,8.32829368 7.61779837,7.82094711 C7.81559063,7.52033399 8.01618486,7.26623546 8.18641687,7.10018853 C8.25665093,7.03168115 8.31369368,6.98611594 8.34763819,6.96613034 C8.32277443,6.98076944 8.26456603,7 8.1616212,7 L14.19888,7 C14.7321668,7 14.7321668,7 16.151252,7 C16.1748736,7 16.1748736,7 16.198491,7 C17.6334322,7 17.6334322,7 18.1066644,7 C17.9075617,6.98862857 17.9733311,7.06832276 17.9733311,7.13537487 L17.9733311,11.5438226 C17.9733311,11.6417976 17.9167339,11.8136551 17.8294946,11.9427227 C17.7867632,12.0059422 17.791619,12.0025871 17.8972056,12.0025871 L16.0822799,12.0025871 L15.2238161,12.0025871 L15.093813,12.8511501 C15.0763773,12.9649572 14.7002123,13.431135 13.9212244,14.2225516 C13.8785495,14.2658872 13.8785495,14.2658872 13.835623,14.3094237 C12.2454963,15.9218836 11.938914,16.2989507 12.0104443,17.169533 C12.0104443,17.169533 12.0011211,18.8116256 11.9844147,18.7657342 Z"
         id="Path"
         sketch:type="MSShapeGroup" />
    </g>
  </g>
</svg>
