<?xml version="1.0" encoding="UTF-8" standalone="no"?>
<svg
   xmlns:dc="http://purl.org/dc/elements/1.1/"
   xmlns:cc="http://creativecommons.org/ns#"
   xmlns:rdf="http://www.w3.org/1999/02/22-rdf-syntax-ns#"
   xmlns:svg="http://www.w3.org/2000/svg"
   xmlns="http://www.w3.org/2000/svg"
   xmlns:sodipodi="http://sodipodi.sourceforge.net/DTD/sodipodi-0.dtd"
   xmlns:inkscape="http://www.inkscape.org/namespaces/inkscape"
   viewBox="8 8 24 24"
   enable-background="new 8 8 24 24"
   id="svg2995"
   version="1.1"
   inkscape:version="0.48.4 r9939"
   width="100%"
   height="100%"
   sodipodi:docname="heart.svg">
  <metadata
     id="metadata3003">
    <rdf:RDF>
      <cc:Work
         rdf:about="">
        <dc:format>image/svg+xml</dc:format>
        <dc:type
           rdf:resource="http://purl.org/dc/dcmitype/StillImage" />
      </cc:Work>
    </rdf:RDF>
  </metadata>
  <defs
     id="defs3001" />
  <sodipodi:namedview
     pagecolor="#ffffff"
     bordercolor="#666666"
     borderopacity="1"
     objecttolerance="10"
     gridtolerance="10"
     guidetolerance="10"
     inkscape:pageopacity="0"
     inkscape:pageshadow="2"
     inkscape:window-width="1920"
     inkscape:window-height="1018"
     id="namedview2999"
     showgrid="false"
     inkscape:zoom="27.125"
     inkscape:cx="12"
     inkscape:cy="12"
     inkscape:window-x="-8"
     inkscape:window-y="-8"
     inkscape:window-maximized="1"
     inkscape:current-layer="svg2995" />
  <path
     d="m 23,13.974026 c 1.699999,0 3.1,1.454545 3.1,3.220779 0,4.051949 -6.1,8.415585 -6.1,8.415585 0,0 -6.1,-4.363636 -6.1,-8.415585 0,-1.766234 1.4,-3.220779 3.099999,-3.220779 C 18.7,13.974026 20,15.428571 20,17.194805 c 0,-1.766234 1.3,-3.220779 3,-3.220779 M 23,12 c -1.1,0 -2.200001,0.415585 -3,1.038961 C 19.2,12.415585 18.1,12 16.999999,12 14.2,12 12,14.285714 12,17.194805 12,22.181818 20,28 20,28 20,28 28,22.181818 28,17.194805 28,14.285714 25.8,12 23,12 z"
     id="path2997"
     inkscape:connector-curvature="0" />
</svg>
