<?xml version="1.0" encoding="UTF-8" standalone="no"?>
<svg
   xmlns:sketch="http://www.bohemiancoding.com/sketch/ns"
   xmlns:dc="http://purl.org/dc/elements/1.1/"
   xmlns:cc="http://creativecommons.org/ns#"
   xmlns:rdf="http://www.w3.org/1999/02/22-rdf-syntax-ns#"
   xmlns:svg="http://www.w3.org/2000/svg"
   xmlns="http://www.w3.org/2000/svg"
   xmlns:sodipodi="http://sodipodi.sourceforge.net/DTD/sodipodi-0.dtd"
   xmlns:inkscape="http://www.inkscape.org/namespaces/inkscape"
   width="24"
   height="24"
   viewBox="0 0 24 24"
   version="1.1"
   id="svg3034"
   inkscape:version="0.48.4 r9939"
   sodipodi:docname="Like.svg">
  <metadata
     id="metadata3047">
    <rdf:RDF>
      <cc:Work
         rdf:about="">
        <dc:format>image/svg+xml</dc:format>
        <dc:type
           rdf:resource="http://purl.org/dc/dcmitype/StillImage" />
        <dc:title>Like</dc:title>
      </cc:Work>
    </rdf:RDF>
  </metadata>
  <sodipodi:namedview
     pagecolor="#ffffff"
     bordercolor="#666666"
     borderopacity="1"
     objecttolerance="10"
     gridtolerance="10"
     guidetolerance="10"
     inkscape:pageopacity="0"
     inkscape:pageshadow="2"
     inkscape:window-width="1699"
     inkscape:window-height="894"
     id="namedview3045"
     showgrid="false"
     inkscape:zoom="9.8333333"
     inkscape:cx="12.5"
     inkscape:cy="12"
     inkscape:window-x="5"
     inkscape:window-y="36"
     inkscape:window-maximized="0"
     inkscape:current-layer="svg3034" />
  <!-- Generator: Sketch 3.3.3 (12081) - http://www.bohemiancoding.com/sketch -->
  <title
     id="title3036">Like</title>
  <desc
     id="desc3038">Created with Sketch.</desc>
  <defs
     id="defs3040" />
  <g
     style="fill:#000000;fill-rule:evenodd;stroke:none"
     transform="matrix(1.001781,0,0,1,0.992876,0)"
     sketch:type="MSArtboardGroup"
     id="Like">
    <path
       inkscape:connector-curvature="0"
       transform="matrix(-1,0,0,-1,22.973332,24)"
       sketch:type="MSShapeGroup"
       id="Path-Copy"
       d="M 6.4408405,14.970116 C 5.0869042,14.970116 4,13.855087 4,12.491763 L 4,7.9567054 C 4,6.754289 5.8122197,4 7.1616212,4 L 13.19888,4 c 0.533287,0 0.533287,0 1.952372,0 l 0.04724,0 c 1.434941,0 1.434941,0 1.977094,0.00238 0.975131,0.067367 1.797746,1.0641463 1.797746,2.1329971 l 0,4.4084479 c 0,1.166959 -0.873157,2.458764 -2.076125,2.458764 l -1.138182,-0.01118 c 0,0 -0.69987,0.910185 -1.412438,1.634122 -0.04355,0.04422 -0.04355,0.04422 -0.08692,0.08821 -0.601061,0.609503 -0.805955,0.825255 -1.017639,1.085606 -0.11507,0.141525 -0.194214,0.255732 -0.234939,0.288298 l 0,2.217529 -0.0043,-0.09216 c 0.0019,0.02225 0.0019,0.02225 0.0041,0.05801 0.01093,0.21466 -0.0085,0.450563 -0.09067,0.703065 -0.147368,0.453137 -0.468177,0.827006 -0.974971,0.982127 L 11.798187,20 l -0.149615,0 -0.497505,0 -0.126684,0 -0.122682,-0.03159 C 10.104426,19.76311 9.361269,19.153648 9.105073,18.449894 l 0.1031683,0.205883 C 9.1852651,18.620702 8.7609923,18.062708 8.5944016,17.810601 8.0327111,16.96058 7.7060172,16.051206 7.6881078,15 L 7,15 C 6.6677467,14.97262 6.4612908,14.97012 6.4408405,14.97012 z m 4.5435745,2.795618 -0.03965,-0.108921 -0.06352,-0.09696 C 10.807694,17.447568 10.380188,16.885321 10.26301,16.707992 9.7678385,15.958636 9.5709442,15.205187 9.7572488,14.178555 L 9.9682513,13.015826 8.786636,13.000089 c -0.070155,-9.35e-4 -0.070155,-9.35e-4 -0.3520696,-0.0047 -0.3534311,-0.0047 -0.3534311,-0.0047 -0.7811815,-0.01028 -0.0173,-2.26e-4 -0.0173,-2.26e-4 -0.034605,-4.51e-4 C 6.8966433,12.975258 6.4862802,12.970078 6.440841,12.970078 6.2030704,12.970116 6,12.761791 6,12.491763 L 6,7.9567054 C 6,7.9409434 6.2839832,7.3282937 6.6177984,6.8209471 6.8155906,6.520334 7.0161849,6.2662355 7.1864169,6.1001885 7.2566509,6.0316811 7.3136937,5.9861159 7.3476382,5.9661303 7.3227744,5.9807694 7.264566,6 7.1616212,6 L 13.19888,6 c 0.533287,0 0.533287,0 1.952372,0 0.02362,0 0.02362,0 0.04724,0 1.434941,0 1.434941,0 1.908173,0 -0.199102,-0.011371 -0.133333,0.068323 -0.133333,0.1353749 l 0,4.4084481 c 0,0.09797 -0.0566,0.269832 -0.143836,0.3989 -0.04273,0.06322 -0.03788,0.05986 0.06771,0.05986 l -1.814926,0 -0.858464,0 -0.130003,0.848563 c -0.01744,0.113807 -0.393601,0.579985 -1.172589,1.371402 -0.04267,0.04333 -0.04267,0.04333 -0.0856,0.08687 -1.590127,1.61246 -1.896709,1.989527 -1.825179,2.860109 0,0 -0.0093,1.642093 -0.02603,1.596201 z" />
  </g>
</svg>
