<?xml version="1.0" encoding="UTF-8" standalone="no"?>
<svg
   xmlns:dc="http://purl.org/dc/elements/1.1/"
   xmlns:cc="http://creativecommons.org/ns#"
   xmlns:rdf="http://www.w3.org/1999/02/22-rdf-syntax-ns#"
   xmlns:svg="http://www.w3.org/2000/svg"
   xmlns="http://www.w3.org/2000/svg"
   xmlns:sodipodi="http://sodipodi.sourceforge.net/DTD/sodipodi-0.dtd"
   xmlns:inkscape="http://www.inkscape.org/namespaces/inkscape"
   width="24"
   height="24"
   id="svg3536"
   version="1.1"
   inkscape:version="0.48.4 r9939"
   sodipodi:docname="dropdown.svg">
  <metadata
     id="metadata3544">
    <rdf:RDF>
      <cc:Work
         rdf:about="">
        <dc:format>image/svg+xml</dc:format>
        <dc:type
           rdf:resource="http://purl.org/dc/dcmitype/StillImage" />
        <dc:title></dc:title>
      </cc:Work>
    </rdf:RDF>
  </metadata>
  <defs
     id="defs3542" />
  <sodipodi:namedview
     pagecolor="#ffffff"
     bordercolor="#666666"
     borderopacity="1"
     objecttolerance="10"
     gridtolerance="10"
     guidetolerance="10"
     inkscape:pageopacity="0"
     inkscape:pageshadow="2"
     inkscape:window-width="1377"
     inkscape:window-height="890"
     id="namedview3540"
     showgrid="false"
     inkscape:zoom="9.8333333"
     inkscape:cx="12"
     inkscape:cy="12"
     inkscape:window-x="0"
     inkscape:window-y="0"
     inkscape:window-maximized="0"
     inkscape:current-layer="svg3536" />
  <path
     d="m 12.790953,14.816643 -2.658012,2.72939 -0.3224595,-0.324538 C 9.63433,17.042655 9.4920546,16.889976 9.4971114,16.878001 c 0.00505,-0.01 1.0552006,-1.090994 2.3314556,-2.402939 1.279249,-1.31093 2.325417,-2.394967 2.325483,-2.408966 5.9e-5,-0.014 -1.034737,-1.108934 -2.301463,-2.4309745 C 10.588879,8.3090963 9.5490471,7.2201381 9.5440992,7.2091145 9.5411456,7.1991007 9.682882,7.0447729 9.8617219,6.8686217 L 10.186255,6.547161 12.811212,9.2956776 c 1.442825,1.5118794 2.628904,2.7595344 2.632843,2.7725534 0.0039,0.01004 -1.188961,1.250359 -2.653116,2.751413 z"
     id="path3538"
     inkscape:connector-curvature="0" />
</svg>
